# xmcd
#
# Track frame offsets: 
#        150
#        13783
#        38206
#        51944
#        71776
#        85445
#        110118
#        128168
#        148583
#        164775
#        182221
#        200485
#
# Disc length: 2916 seconds
#
# Revision: 0
# Processed by: cddbd v1.5.2PL0 Copyright (c) Steve Scherf et al.
# Submitted via: ExactAudioCopy v1.0b3
#
DISCID=bc0b620c
DTITLE=Harp Mitch and the Bluescasters - Little boys talk
DYEAR=2012
DGENRE=Blues
TTITLE0=No more doggin'
TTITLE1=Real Love
TTITLE2=Little boys talk
TTITLE3=One more time
TTITLE4=Tell me mama
TTITLE5=Black Night
TTITLE6=I really do my best
TTITLE7=The toddle
TTITLE8=Somebody
TTITLE9=Up the line
TTITLE10=Deep brown
TTITLE11=Another man done gone
EXTD=
EXTT0=
EXTT1=
EXTT2=
EXTT3=
EXTT4=
EXTT5=
EXTT6=
EXTT7=
EXTT8=
EXTT9=
EXTT10=
EXTT11=
PLAYORDER=
